<svg width="41" height="26" viewBox="0 0 41 26" fill="none" xmlns="http://www.w3.org/2000/svg">
<path d="M39.9246 0.902039C38.6506 0.978829 37.3919 1.21987 36.1796 1.61917C34.9471 1.96509 33.7473 2.41835 32.594 2.97375C31.4296 3.47276 30.3322 4.11516 29.327 4.88606C28.3008 5.59496 27.3408 6.39496 26.4585 7.27656C25.5696 8.20246 24.7443 9.18736 23.9884 10.2248C23.2751 11.2676 22.6361 12.3592 22.076 13.4917C21.5552 14.6596 21.1029 15.8569 20.7215 17.0774C20.4058 18.3098 20.1663 19.5605 20.0043 20.8224C19.9199 19.5493 19.6791 18.2915 19.2872 17.0774C18.9413 15.8449 18.488 14.6451 17.9326 13.4917C17.4336 12.3274 16.7912 11.2299 16.0203 10.2248C15.2919 9.18846 14.4932 8.20336 13.6298 7.27656C12.703 6.41316 11.7179 5.61446 10.6816 4.88606C9.67647 4.11516 8.579 3.47276 7.41468 2.97375C6.27257 2.39252 5.07016 1.93828 3.82902 1.61917C2.61677 1.21987 1.35801 0.978829 0.0840036 0.902039C0.0840036 1.61917 0.0043223 2.3363 0.0043223 3.05343C-0.0264515 4.52456 0.107179 5.99446 0.402729 7.43586C0.551182 8.16226 0.737357 8.88036 0.960498 9.58726C1.12782 10.3007 1.36813 10.9949 1.67763 11.6591C1.93625 12.3373 2.22878 13.0022 2.55412 13.6511L3.66966 15.5634L5.02424 17.3164L6.45851 18.91L8.05213 20.424L9.80512 21.6989C10.4426 22.177 11.08 22.4957 11.7175 22.8941L13.7095 23.8503L15.7015 24.5674L17.8529 25.1252L20.0043 25.4439L22.1557 25.1252L24.3071 24.5674L26.3788 23.8503L28.3709 22.8941L30.2035 21.6989L31.9565 20.424C32.5257 19.9609 33.0584 19.4547 33.5501 18.91C34.0948 18.4183 34.6009 17.8856 35.0641 17.3164L36.339 15.5634C36.7374 14.926 37.1358 14.2885 37.4545 13.6511L38.4107 11.6591L39.1278 9.58726C39.3251 8.87916 39.4847 8.16096 39.6059 7.43586C39.7511 6.72506 39.8575 6.00686 39.9246 5.28446C40.0321 4.54596 40.0588 3.79781 40.0043 3.05343C40.0175 2.33538 39.9909 1.61715 39.9246 0.902039Z" fill="url(#paint0_linear_1_47)"/>
<defs>
<linearGradient id="paint0_linear_1_47" x1="6.50516" y1="4.58316" x2="23.3076" y2="29.669" gradientUnits="userSpaceOnUse">
<stop stop-color="#EB662B"/>
<stop offset="1" stop-color="#F28555"/>
</linearGradient>
</defs>
</svg>
