<svg width="12" height="11" viewBox="0 0 12 11" fill="none" xmlns="http://www.w3.org/2000/svg">
<path d="M11.0244 5.54742C11.0405 5.89466 11.0138 6.24258 10.9447 6.58327C10.875 6.93875 10.7681 7.28594 10.626 7.61913L10.1479 8.49562L9.51042 9.29243L8.71362 9.92988L7.75742 10.408L6.80132 10.7267H4.72952L3.69372 10.408L2.81722 9.92988L2.02042 9.29243L1.30332 8.49562L0.825219 7.61913L0.506419 6.58327C0.506419 6.26455 0.426819 5.94582 0.426819 5.54742C0.426819 5.14901 0.506419 4.90997 0.506419 4.59124C0.506419 4.27252 0.745519 3.87411 0.825219 3.55538L1.30332 2.67889L2.02042 1.88208C2.24902 1.62714 2.51832 1.41175 2.81722 1.24463L3.69372 0.76654L4.72952 0.447815H6.80132L7.75742 0.76654L8.71362 1.24463L9.51042 1.88208L10.1479 2.67889L10.626 3.55538C10.7789 3.88454 10.8861 4.23305 10.9447 4.59124C11.0105 4.90548 11.0372 5.22663 11.0244 5.54742Z" fill="#EB662B"/>
</svg>
